<svg xmlns="http://www.w3.org/2000/svg" viewBox="0 0 40 40"><defs><style>.cls-1{fill:#06dbc9;}.cls-2{fill:#fff;}</style></defs><title>アセット 4</title><g id="レイヤー_2" data-name="レイヤー 2"><g id="design"><rect class="cls-1" width="40" height="40"/><path class="cls-2" d="M31.55,11.5A2.51,2.51,0,0,0,29,14a2.56,2.56,0,0,0,.33,1.22l-6.05,7a2.66,2.66,0,0,0-.9-.17,2.59,2.59,0,0,0-.63.09L19.33,18.6a2.44,2.44,0,0,0,.47-1.45,2.51,2.51,0,0,0-5,0A2.53,2.53,0,0,0,15,18.21L9.51,23.72a2.53,2.53,0,0,0-1.06-.24,2.52,2.52,0,1,0,2.27,1.45l5.51-5.51a2.5,2.5,0,0,0,1.06.24,2.59,2.59,0,0,0,.63-.09l2.46,3.54a2.51,2.51,0,1,0,4.55,1.45,2.48,2.48,0,0,0-.32-1.21l6.05-7a2.43,2.43,0,0,0,.89.17,2.51,2.51,0,1,0,0-5Z"/></g></g></svg>