<svg xmlns="http://www.w3.org/2000/svg" viewBox="0 0 40 40"><defs><style>.cls-1{fill:#06dbc9;}.cls-2{fill:#fff;}</style></defs><title>アセット 1</title><g id="レイヤー_2" data-name="レイヤー 2"><g id="design"><rect class="cls-1" width="40" height="40"/><path class="cls-2" d="M19.48,27.66a13.62,13.62,0,0,0-5.12-1.07,12.17,12.17,0,0,0-3.32.55,14.72,14.72,0,0,0-1.46.51l-.07,0a.23.23,0,0,1-.16-.06.25.25,0,0,1-.12-.22V14.26a.78.78,0,0,1,.16-.46,2.07,2.07,0,0,1,.59-.46c.15-.06.72-.29,1.49-.52a10.93,10.93,0,0,1,2.89-.49,11.66,11.66,0,0,1,3.88.68,9.5,9.5,0,0,1,1.11.45l.13.07Z"/><path class="cls-2" d="M30.77,27.39a.25.25,0,0,1-.12.22h0a.23.23,0,0,1-.16.06l-.07,0A14.72,14.72,0,0,0,29,27.14a12.17,12.17,0,0,0-3.32-.55,13.62,13.62,0,0,0-5.12,1.07V13.53a11.7,11.7,0,0,1,5.12-1.2,10.62,10.62,0,0,1,3,.52c.44.13.8.26,1.06.35l.3.12.05,0a2.07,2.07,0,0,1,.59.46.78.78,0,0,1,.16.46V27.39Z"/></g></g></svg>