<?xml version="1.0" encoding="utf-8"?>
<!-- Generator: Adobe Illustrator 25.2.0, SVG Export Plug-In . SVG Version: 6.00 Build 0)  -->
<svg version="1.1" id="レイヤー_1" xmlns="http://www.w3.org/2000/svg" xmlns:xlink="http://www.w3.org/1999/xlink" x="0px"
	 y="0px" viewBox="0 0 40 40" style="enable-background:new 0 0 40 40;" xml:space="preserve">
<style type="text/css">
	.st0{fill:#06DBC9;}
	.st1{fill:#FFFFFF;}
	.st2{fill:none;stroke:#FFFFFF;stroke-width:2;stroke-linecap:round;stroke-miterlimit:10;}
</style>
<rect class="st0" width="40" height="40"/>
<g id="レイヤー_2_1_">
	<g id="design">
		<g id="Social-_x2F_-28---Social_x2C_-speaker_x2C_-advertising_x2C_-megaphone_x2C_-loud_x2C_-marketing-icon">
			<path class="st1" d="M26.1,27.9c-0.1,0-0.2,0-0.4,0l-12.5-1.2l-2.6,0.7c-2,0.5-4-0.7-4.5-2.7l-0.9-3.4c-0.5-2,0.7-4,2.7-4.5
				l2.6-0.7L20.7,9c0.3-0.2,0.7-0.3,1-0.1c0.3,0.1,0.6,0.4,0.7,0.7l4.4,16.9c0.1,0.3,0,0.7-0.2,1C26.5,27.7,26.3,27.9,26.1,27.9z"/>
			<path class="st1" d="M13.3,33.7c-0.6,0-1.1-0.3-1.4-0.9l-4.6-9.3c-0.4-0.8-0.1-1.7,0.7-2.1c0.8-0.4,1.7-0.1,2.1,0.7l4.6,9.3
				c0.4,0.8,0.1,1.7-0.7,2.1C13.8,33.6,13.5,33.7,13.3,33.7z"/>
		</g>
	</g>
</g>
<path class="st2" d="M27.4,15.4c0,0,1.6,0.5,2,2.3c0.4,1.8-0.7,3-0.7,3"/>
<path class="st2" d="M29.4,12.8c0,0,2.7,0.8,3.4,4.1c0.7,3.2-1.3,5.4-1.3,5.4"/>
</svg>
