<?xml version="1.0" encoding="UTF-8" standalone="no"?>
<!DOCTYPE svg PUBLIC "-//W3C//DTD SVG 1.1//EN" "http://www.w3.org/Graphics/SVG/1.1/DTD/svg11.dtd">
<svg version="1.1" xmlns="http://www.w3.org/2000/svg" xmlns:xlink="http://www.w3.org/1999/xlink" preserveAspectRatio="xMidYMid meet" viewBox="0 0 640 640" width="640" height="640"><defs><path d="M0 0L640 0L640 640L0 640L0 0Z" id="aUgb0pCUo"></path><path d="M485.75 355.07C485.75 353.3 485.75 339.19 485.75 337.43C485.75 333.56 482.67 330.35 478.69 330.04C476.28 329.86 456.94 328.4 454.52 328.22C452.98 328.11 451.66 327.17 451.07 325.79C450.27 323.94 443.91 309.09 443.12 307.24C442.52 305.87 442.77 304.29 443.78 303.17C445.35 301.39 457.96 287.12 459.54 285.34C462.13 282.4 461.97 278.03 459.13 275.3C457.84 274.05 447.53 264.08 446.24 262.83C443.41 260.1 438.89 259.92 435.86 262.44C434.01 263.96 419.26 276.15 417.42 277.68C416.25 278.64 414.62 278.89 413.21 278.33C411.29 277.56 395.94 271.4 394.02 270.63C392.6 270.06 391.63 268.76 391.5 267.29C391.31 264.96 389.81 246.26 389.62 243.92C389.31 240.06 385.99 237.09 382 237.09C380.17 237.09 365.58 237.09 363.75 237.09C359.76 237.09 356.44 240.06 356.13 243.92C355.94 246.26 354.43 264.96 354.24 267.29C354.12 268.77 353.15 270.07 351.73 270.63C349.81 271.4 334.46 277.56 332.54 278.33C331.12 278.89 329.49 278.65 328.32 277.68C326.48 276.16 311.73 263.96 309.89 262.44C306.86 259.92 302.34 260.1 299.51 262.83C298.22 264.08 287.9 274.05 286.61 275.3C283.79 278.03 283.62 282.4 286.21 285.34C287.78 287.12 300.39 301.39 301.97 303.17C302.96 304.3 303.22 305.87 302.63 307.24C301.84 309.1 295.48 323.94 294.68 325.79C294.1 327.17 292.76 328.11 291.24 328.22C288.82 328.4 269.47 329.86 267.05 330.04C263.07 330.35 260 333.56 260 337.43C260 339.19 260 353.3 260 355.06C260 358.93 263.07 362.14 267.05 362.44C269.47 362.63 288.82 364.08 291.24 364.26C292.76 364.38 294.1 365.32 294.68 366.69C295.48 368.55 301.84 383.39 302.63 385.25C303.22 386.62 302.96 388.2 301.97 389.33C300.39 391.11 287.78 405.37 286.21 407.15C283.62 410.09 283.79 414.46 286.61 417.19C287.9 418.44 298.22 428.42 299.51 429.67C302.34 432.4 306.86 432.56 309.89 430.05C311.74 428.53 326.48 416.33 328.32 414.81C329.49 413.85 331.12 413.6 332.54 414.17C334.46 414.94 349.81 421.09 351.73 421.86C353.15 422.43 354.12 423.72 354.24 425.2C354.43 427.54 355.94 446.24 356.13 448.57C356.44 452.42 359.76 455.4 363.75 455.4C365.58 455.4 380.17 455.4 382 455.4C385.99 455.4 389.31 452.42 389.62 448.57C389.81 446.24 391.31 427.54 391.5 425.2C391.63 423.72 392.6 422.43 394.02 421.86C395.94 421.09 411.29 414.94 413.21 414.17C414.62 413.6 416.26 413.85 417.42 414.81C419.26 416.33 434.01 428.53 435.86 430.05C438.89 432.56 443.41 432.4 446.24 429.67C447.53 428.42 457.85 418.44 459.13 417.19C461.97 414.46 462.13 410.09 459.54 407.15C457.97 405.37 445.36 391.11 443.78 389.33C442.79 388.2 442.52 386.62 443.12 385.25C443.91 383.39 450.27 368.55 451.07 366.69C451.66 365.32 452.98 364.38 454.52 364.26C456.13 364.14 464.19 363.53 478.69 362.44C483.4 360.1 485.75 357.64 485.75 355.07ZM345.9 372.34C338.69 365.36 334.72 356.1 334.72 346.24C334.72 336.39 338.69 327.12 345.9 320.16C353.1 313.18 362.68 309.35 372.87 309.35C383.07 309.35 392.65 313.18 399.85 320.16C407.06 327.12 411.03 336.39 411.03 346.24C411.03 356.1 407.06 365.36 399.85 372.34C392.65 379.3 383.07 383.14 372.87 383.14C362.68 383.14 353.1 379.3 345.9 372.34Z" id="i4HlonQAzp"></path><path d="M271.49 392.12C271.49 391.04 271.49 382.41 271.49 381.33C271.49 378.97 269.79 377.01 267.59 376.82C266.25 376.71 255.53 375.81 254.19 375.7C253.34 375.63 252.61 375.06 252.28 374.22C251.84 373.09 248.32 364.01 247.88 362.88C247.55 362.04 247.69 361.08 248.24 360.39C249.12 359.3 256.1 350.58 256.98 349.49C258.41 347.7 258.32 345.02 256.75 343.36C256.04 342.59 250.32 336.49 249.61 335.73C248.04 334.06 245.53 333.96 243.86 335.49C242.83 336.42 234.66 343.88 233.64 344.81C233 345.4 232.09 345.55 231.31 345.2C230.25 344.73 221.74 340.97 220.68 340.5C219.89 340.15 219.35 339.36 219.29 338.46C219.18 337.03 218.35 325.6 218.24 324.17C218.07 321.82 216.23 320 214.02 320C213.01 320 204.92 320 203.91 320C201.7 320 199.86 321.82 199.69 324.17C199.58 325.6 198.75 337.03 198.64 338.46C198.58 339.37 198.04 340.16 197.25 340.5C196.19 340.97 187.68 344.73 186.62 345.2C185.83 345.55 184.93 345.4 184.28 344.81C183.26 343.88 175.1 336.42 174.08 335.49C172.4 333.96 169.89 334.06 168.32 335.73C167.61 336.49 161.89 342.59 161.18 343.36C159.61 345.03 159.52 347.7 160.95 349.49C161.83 350.58 168.81 359.3 169.69 360.39C170.24 361.08 170.38 362.04 170.05 362.88C169.61 364.01 166.09 373.09 165.65 374.22C165.33 375.06 164.58 375.63 163.74 375.7C162.4 375.82 151.68 376.71 150.34 376.82C148.14 377.01 146.44 378.97 146.44 381.33C146.44 382.41 146.44 391.03 146.44 392.11C146.44 394.47 148.14 396.44 150.34 396.62C151.68 396.74 162.4 397.62 163.74 397.74C164.58 397.81 165.33 398.38 165.65 399.22C166.09 400.36 169.61 409.43 170.05 410.56C170.38 411.4 170.24 412.37 169.69 413.06C168.81 414.15 161.83 422.87 160.95 423.96C159.52 425.75 159.62 428.42 161.18 430.09C161.89 430.85 167.61 436.95 168.32 437.72C169.89 439.39 172.4 439.49 174.08 437.95C175.1 437.02 183.26 429.57 184.28 428.63C184.93 428.05 185.83 427.89 186.62 428.24C187.68 428.71 196.19 432.47 197.25 432.94C198.04 433.29 198.58 434.08 198.64 434.99C198.75 436.42 199.58 447.85 199.69 449.27C199.86 451.63 201.7 453.45 203.91 453.45C204.92 453.45 213.01 453.45 214.02 453.45C216.23 453.45 218.07 451.63 218.24 449.27C218.35 447.85 219.18 436.42 219.29 434.99C219.35 434.08 219.89 433.29 220.68 432.94C221.74 432.47 230.25 428.71 231.31 428.24C232.09 427.89 233 428.05 233.64 428.63C234.66 429.57 242.83 437.02 243.86 437.95C245.54 439.49 248.04 439.39 249.61 437.72C250.32 436.95 256.04 430.85 256.75 430.09C258.32 428.42 258.41 425.75 256.98 423.96C256.1 422.87 249.12 414.15 248.25 413.06C247.7 412.37 247.55 411.4 247.88 410.56C248.32 409.43 251.84 400.36 252.28 399.22C252.61 398.38 253.34 397.81 254.19 397.74C255.09 397.66 259.55 397.29 267.59 396.62C270.19 395.19 271.49 393.69 271.49 392.12ZM194.02 402.67C190.03 398.41 187.83 392.75 187.83 386.72C187.83 380.7 190.03 375.03 194.02 370.78C198.01 366.51 203.32 364.17 208.97 364.17C214.61 364.17 219.92 366.51 223.91 370.78C227.9 375.03 230.1 380.7 230.1 386.72C230.1 392.75 227.9 398.41 223.91 402.67C219.92 406.93 214.61 409.27 208.97 409.27C203.32 409.27 198.01 406.93 194.02 402.67Z" id="g1p7tEATdP"></path><path d="M285.29 268C285.29 267.2 285.29 260.84 285.29 260.05C285.29 258.31 283.85 256.86 282 256.72C280.87 256.64 271.85 255.98 270.72 255.9C270.01 255.85 269.39 255.43 269.11 254.8C268.74 253.97 265.78 247.28 265.4 246.44C265.13 245.82 265.24 245.11 265.71 244.61C266.45 243.8 272.33 237.38 273.06 236.57C274.27 235.25 274.2 233.28 272.88 232.05C272.27 231.49 267.46 226.99 266.86 226.43C265.54 225.2 263.43 225.12 262.02 226.25C261.16 226.94 254.28 232.43 253.42 233.12C252.88 233.55 252.12 233.67 251.46 233.41C250.56 233.06 243.4 230.29 242.5 229.94C241.84 229.69 241.39 229.1 241.33 228.44C241.24 227.38 240.54 218.96 240.45 217.9C240.31 216.17 238.76 214.83 236.9 214.83C236.05 214.83 229.24 214.83 228.39 214.83C226.53 214.83 224.98 216.17 224.83 217.91C224.74 218.96 224.04 227.39 223.95 228.44C223.9 229.11 223.44 229.69 222.78 229.94C221.89 230.29 214.73 233.06 213.83 233.41C213.17 233.67 212.41 233.56 211.86 233.12C211 232.43 204.13 226.94 203.27 226.25C201.86 225.12 199.75 225.2 198.43 226.43C197.83 226.99 193.01 231.49 192.41 232.05C191.09 233.28 191.01 235.25 192.22 236.57C192.96 237.38 198.84 243.8 199.57 244.61C200.04 245.12 200.16 245.82 199.88 246.44C199.51 247.28 196.55 253.97 196.17 254.8C195.9 255.43 195.28 255.85 194.57 255.9C193.44 255.98 184.42 256.64 183.29 256.72C181.43 256.86 180 258.31 180 260.05C180 260.84 180 267.2 180 268C180 269.74 181.43 271.19 183.29 271.32C184.42 271.4 193.44 272.06 194.57 272.14C195.28 272.2 195.9 272.62 196.17 273.24C196.55 274.07 199.51 280.76 199.88 281.6C200.16 282.22 200.04 282.93 199.57 283.44C198.84 284.24 192.96 290.67 192.22 291.47C191.01 292.79 191.1 294.76 192.41 296C193.01 296.56 197.83 301.06 198.43 301.62C199.75 302.85 201.86 302.93 203.27 301.79C204.13 301.11 211.01 295.61 211.86 294.92C212.41 294.49 213.17 294.38 213.83 294.63C214.73 294.98 221.89 297.75 222.78 298.1C223.44 298.36 223.9 298.94 223.95 299.61C224.04 300.66 224.74 309.09 224.83 310.14C224.98 311.88 226.53 313.22 228.39 313.22C229.24 313.22 236.05 313.22 236.9 313.22C238.76 313.22 240.31 311.88 240.46 310.14C240.54 309.09 241.24 300.66 241.33 299.61C241.39 298.94 241.84 298.36 242.51 298.1C243.4 297.75 250.56 294.98 251.46 294.63C252.12 294.38 252.88 294.49 253.42 294.92C254.28 295.61 261.16 301.11 262.02 301.79C263.43 302.93 265.54 302.85 266.86 301.62C267.46 301.06 272.27 296.56 272.88 296C274.2 294.76 274.27 292.79 273.07 291.47C272.33 290.67 266.45 284.24 265.71 283.44C265.25 282.93 265.13 282.22 265.41 281.6C265.78 280.76 268.74 274.07 269.11 273.24C269.39 272.62 270.01 272.2 270.72 272.14C271.47 272.09 275.23 271.81 282 271.32C284.19 270.27 285.29 269.16 285.29 268ZM220.06 275.78C216.7 272.64 214.85 268.46 214.85 264.02C214.85 259.58 216.7 255.4 220.06 252.26C223.42 249.12 227.89 247.39 232.64 247.39C237.4 247.39 241.87 249.12 245.23 252.26C248.59 255.4 250.44 259.58 250.44 264.02C250.44 268.46 248.59 272.64 245.23 275.78C241.87 278.92 237.4 280.65 232.64 280.65C227.89 280.65 223.42 278.92 220.06 275.78Z" id="aaUB8x5qTz"></path></defs><g><g><g><use xlink:href="#aUgb0pCUo" opacity="1" fill="#06dbc9" fill-opacity="1"></use></g><g><use xlink:href="#i4HlonQAzp" opacity="1" fill="#ffffff" fill-opacity="1"></use><g><use xlink:href="#i4HlonQAzp" opacity="1" fill-opacity="0" stroke="#000000" stroke-width="1" stroke-opacity="0"></use></g></g><g><use xlink:href="#g1p7tEATdP" opacity="1" fill="#ffffff" fill-opacity="1"></use><g><use xlink:href="#g1p7tEATdP" opacity="1" fill-opacity="0" stroke="#000000" stroke-width="1" stroke-opacity="0"></use></g></g><g><use xlink:href="#aaUB8x5qTz" opacity="1" fill="#ffffff" fill-opacity="1"></use><g><use xlink:href="#aaUB8x5qTz" opacity="1" fill-opacity="0" stroke="#000000" stroke-width="1" stroke-opacity="0"></use></g></g></g></g></svg>