<svg xmlns="http://www.w3.org/2000/svg" viewBox="0 0 40 40"><defs><style>.cls-1{fill:#06dbc9;}.cls-2{fill:#fff;}</style></defs><title>アセット 3</title><g id="レイヤー_2" data-name="レイヤー 2"><g id="design"><rect class="cls-1" width="40" height="40"/><path class="cls-2" d="M13.3,13.29H9.63a.91.91,0,0,0-.9.9V25.81a.91.91,0,0,0,.9.9H13.3a.9.9,0,0,0,.9-.9V14.19A.9.9,0,0,0,13.3,13.29Z"/><path class="cls-2" d="M6.9,16.12H5.75a.75.75,0,0,0-.75.75v6.26a.75.75,0,0,0,.75.75H6.9a.75.75,0,0,0,.75-.75V16.87A.75.75,0,0,0,6.9,16.12Z"/><rect class="cls-2" x="15.41" y="18.41" width="9.18" height="3.18"/><path class="cls-2" d="M30.37,13.29H26.7a.9.9,0,0,0-.9.9V25.81a.9.9,0,0,0,.9.9h3.67a.91.91,0,0,0,.9-.9V14.19A.91.91,0,0,0,30.37,13.29Z"/><path class="cls-2" d="M34.25,16.12H33.1a.75.75,0,0,0-.75.75v6.26a.75.75,0,0,0,.75.75h1.15a.75.75,0,0,0,.75-.75V16.87A.75.75,0,0,0,34.25,16.12Z"/></g></g></svg>