<svg xmlns="http://www.w3.org/2000/svg" viewBox="0 0 1024 1024"><defs><style>.cls-1{fill:#fff;}</style></defs><g id="レイヤー_2" data-name="レイヤー 2"><g id="レイヤー_1-2" data-name="レイヤー 1"><path class="cls-1" d="M512,0C229.23,0,0,229.23,0,512c0,255.55,187.23,467.37,432,505.78a517.79,517.79,0,0,0,160,0C836.77,979.37,1024,767.55,1024,512,1024,229.23,794.77,0,512,0Z"/><path d="M648.73,185H375.27c-102.09,0-184.85,82.76-184.85,184.85V654.2c0,102.09,82.76,184.85,184.85,184.85H648.73c102.09,0,184.85-82.76,184.85-184.85V369.8C833.58,267.71,750.82,185,648.73,185ZM256.05,369.8A119.35,119.35,0,0,1,375.27,250.58H648.73A119.35,119.35,0,0,1,768,369.8V654.2A119.35,119.35,0,0,1,648.73,773.42H375.27A119.35,119.35,0,0,1,256.05,654.2Z"/><path d="M512,680.44c92.88,0,168.45-75.56,168.45-168.44S604.88,343.55,512,343.55,343.56,419.12,343.56,512,419.12,680.44,512,680.44Zm0-284.39A116,116,0,1,1,396.06,512,116.08,116.08,0,0,1,512,396.05Z"/><circle cx="685.37" cy="338.63" r="37.74"/></g></g></svg>