<svg xmlns="http://www.w3.org/2000/svg" viewBox="0 0 1024 1024"><defs><style>.cls-1{fill:#fff;}</style></defs><g id="レイヤー_2" data-name="レイヤー 2"><g id="Ebene_1" data-name="Ebene 1"><path class="cls-1" d="M512,0C229.23,0,0,229.23,0,512c0,255.55,187.23,467.37,432,505.78a517.58,517.58,0,0,0,160,0C836.77,979.37,1024,767.55,1024,512,1024,229.23,794.77,0,512,0Z"/><path id="Logo" d="M814.71,400.79c.42,6.13.42,12.29.42,18.47,0,188.82-143.74,406.55-406.54,406.55v-.12a404.38,404.38,0,0,1-219-64.07,290.55,290.55,0,0,0,34,2.06A286.71,286.71,0,0,0,401,702.4a143,143,0,0,1-133.49-99.23,142.5,142.5,0,0,0,64.51-2.45A142.94,142.94,0,0,1,217.43,460.66v-1.81a141.87,141.87,0,0,0,64.85,17.88A143,143,0,0,1,238.05,286,405.63,405.63,0,0,0,532.52,435.28,143,143,0,0,1,776,305a286.2,286.2,0,0,0,90.73-34.68,143.36,143.36,0,0,1-62.82,79A284.81,284.81,0,0,0,886,326.83,290.44,290.44,0,0,1,814.71,400.79Z"/></g></g></svg>