<svg xmlns="http://www.w3.org/2000/svg" viewBox="0 0 180 80"><defs><style>.cls-1{fill:#fff;}.cls-2{fill:#e50012;}</style></defs><title>アセット 9</title><g id="レイヤー_2" data-name="レイヤー 2"><g id="common"><rect class="cls-1" width="180" height="80"/><path class="cls-2" d="M75.59,27.28a8.33,8.33,0,0,0-1.93,5.55s0,21.92,0,22.17H83V43.61H108V37.35H83V32.28h26.78c0-.25,0-7,0-7.28H80.17A5.83,5.83,0,0,0,75.59,27.28Z"/><path class="cls-2" d="M114,25v7.28h12.83V55h10.36V32.28h12.92V25Z"/><path class="cls-2" d="M64.3,39.36v-.25s2.91-.49,2.91-6.45c0-.24,0-.5,0-.77a7.19,7.19,0,0,0-2.12-5.3A6.76,6.76,0,0,0,60.61,25H29.87v7h28V36.7h-28V55H60.6a7.12,7.12,0,0,0,4.57-1.93,8,8,0,0,0,2.06-5.9C67.23,39.77,64.33,39.37,64.3,39.36ZM57.06,48H37.16V42.64h19.9Z"/></g></g></svg>