<svg xmlns="http://www.w3.org/2000/svg" xmlns:xlink="http://www.w3.org/1999/xlink" viewBox="0 0 1200 700"><defs><style>.cls-1{fill:none;}.cls-2{fill:#e58888;}.cls-3{fill:url(#新規パターンスウォッチ_27);}</style><pattern id="新規パターンスウォッチ_27" data-name="新規パターンスウォッチ 27" width="60" height="60" patternTransform="translate(0 220)" patternUnits="userSpaceOnUse" viewBox="0 0 60 60"><rect class="cls-1" width="60" height="60"/><rect class="cls-1" x="20" width="20" height="20"/><rect class="cls-1" x="40" width="20" height="20"/><rect class="cls-1" x="40" y="20" width="20" height="20"/><rect class="cls-1" y="20" width="20" height="20"/><path class="cls-2" d="M12.14,28.88v.69H7.86v-.69Zm0,1.54v.7H7.86v-.7Z"/><rect class="cls-1" x="20" y="20" width="20" height="20"/><path class="cls-2" d="M30.57,7.2V8.33H29.43V7.2Zm0,3.38v1.05a1.15,1.15,0,0,1-1.11,1.17v-.48c.59-.09.63-.43.64-.61h-.67V10.58Z"/><path class="cls-2" d="M27.86,27.71l4.28,1.91v.76l-4.28,1.91v-.83L31.14,30l-3.28-1.45Z"/><path class="cls-2" d="M12.14,52.29,7.86,50.38v-.76l4.28-1.91v.83L8.86,50l3.28,1.45Z"/><path class="cls-2" d="M50.35,27.86v1.79h1.79v.7H50.35v1.79h-.7V30.35H47.86v-.7h1.79V27.86Z"/><rect class="cls-1" x="40" y="40" width="20" height="20"/><rect class="cls-1" y="40" width="20" height="20"/><rect class="cls-1" x="20" y="40" width="20" height="20"/><path class="cls-2" d="M31.78,47.2l-2.87,5.6h-.69l2.87-5.6Z"/><path class="cls-2" d="M50.7,47.2v1.41H49.3V47.2Zm0,4.19V52.8H49.3V51.39Z"/><path class="cls-2" d="M9.74,10.86c0-.32,0-.7.34-.86-.34-.16-.34-.54-.34-.86V8.37c0-.39,0-.5-.47-.62l.19-.55c.88.25,1,.48,1,1.17v.78c0,.43,0,.54.31.61v.48c-.29.07-.31.18-.31.61v.78c0,.71-.1.93-1,1.17l-.19-.55c.45-.12.47-.23.47-.62Z"/><path class="cls-2" d="M48.91,7.2l2.87,5.6h-.69L48.22,7.2Z"/></pattern></defs><title>アセット 1</title><g id="レイヤー_2" data-name="レイヤー 2"><g id="bg"><rect class="cls-3" width="1200" height="700"/></g></g></svg>